<?xml version="1.0" encoding="utf-8"?>
<!-- Generator: Adobe Illustrator 21.0.0, SVG Export Plug-In . SVG Version: 6.00 Build 0)  -->
<svg version="1.1" id="Layer_1" xmlns="http://www.w3.org/2000/svg" xmlns:xlink="http://www.w3.org/1999/xlink" x="0px" y="0px"
	 viewBox="0 0 15 10" style="enable-background:new 0 0 15 10;" xml:space="preserve">
<style type="text/css">
	.st0{fill:#FFFFFF;stroke:#FFFFFF;stroke-width:0.25;stroke-miterlimit:10;}
</style>
<g>
	<g>
		<g>
			<g>
				<path class="st0" d="M13.5,1.2h-12c-0.3,0-0.5,0.2-0.5,0.5V9c0,0.3,0.2,0.5,0.5,0.5h12C13.8,9.5,14,9.3,14,9V1.8
					C14,1.5,13.8,1.2,13.5,1.2z M1.5,1.7h12c0.1,0,0.1,0,0.1,0.1L7.5,5.6L1.4,1.8C1.4,1.8,1.5,1.7,1.5,1.7z M1.4,2.3L5.8,5L1.4,8.5
					V2.3z M13.7,9.1c0,0.1-0.1,0.1-0.1,0.1h-12c-0.1,0-0.1-0.1-0.1-0.1V9l4.8-3.8L7.4,6c0.1,0,0.2,0,0.2,0l1.2-0.8L13.7,9V9.1z
					 M13.7,8.5L9.3,5l4.4-2.7V8.5z"/>
			</g>
		</g>
	</g>
</g>
</svg>
